<?xml version="1.0" encoding="UTF-8"?>
<svg viewBox="0 0 48 67" version="1.1" xmlns="http://www.w3.org/2000/svg" xmlns:xlink="http://www.w3.org/1999/xlink">
    <!-- Generator: Sketch 53.2 (72643) - https://sketchapp.com -->
    <title>Combined Shape</title>
    <desc>Created with Sketch.</desc>
    <g id="Symbols" stroke="none" stroke-width="1" fill="none" fill-rule="evenodd">
        <g id="Atoms-/-icons-/illustrated/-Water_OFF" transform="translate(-26.000000, -17.000000)" fill="#44556B">
            <path d="M56.1584906,24.3867686 C63.3132075,34.9442264 74,50.7804131 74,59.8816698 C74,66.5255871 71.2830189,72.5324166 66.9358491,76.9010198 C62.5886792,81.269623 56.6113208,84 50,84 C43.3886792,84 37.4113208,81.269623 33.0641509,76.9920323 C28.7169811,72.6234291 26,66.6165997 26,59.9726823 C26,50.8714256 36.6867925,34.9442264 43.8415094,24.3867686 C45.4716981,22.0204419 46.8301887,20.0181654 48.0075472,18.1069015 C48.7320755,17.0147507 50.1811321,16.6507005 51.2679245,17.378801 C51.5396226,17.5608261 51.8113208,17.8338638 51.9924528,18.1069015 C53.2603774,20.0181654 54.6188679,22.1114545 56.1584906,24.3867686 Z M63.766114,58.005664 C62.4664345,57.9159965 61.3524235,58.902339 61.2595893,60.1576839 C61.166755,62.1303689 60.5169153,64.0133863 59.4957386,65.6274013 C58.4745618,67.2414163 56.9892139,68.6760962 55.2253631,69.5727712 C54.1113522,70.2004437 53.6471809,71.6351236 54.2970206,72.7111336 C55.0396946,73.9664786 56.5250426,74.3251486 57.6390536,73.6974761 C60.1455783,72.3524636 62.1879318,70.3797787 63.5804455,68.1380912 C65.0657935,65.8964038 65.9013017,63.2063789 65.994136,60.4266864 C66.0869702,59.1713415 65.0657935,58.0953315 63.766114,58.005664 Z" id="Combined-Shape"></path>
        </g>
    </g>
</svg>