<?xml version="1.0" encoding="UTF-8"?>
<svg viewBox="0 0 50 69" version="1.1" xmlns="http://www.w3.org/2000/svg" xmlns:xlink="http://www.w3.org/1999/xlink">
    <!-- Generator: Sketch 53.2 (72643) - https://sketchapp.com -->
    <title>Group</title>
    <desc>Created with Sketch.</desc>
    <g id="Symbols" stroke="none" stroke-width="1" fill="none" fill-rule="evenodd">
        <g id="Atoms-/-icons-/illustrated/-Water_ON" transform="translate(-25.000000, -16.000000)">
            <g id="Group" transform="translate(26.000000, 17.000000)">
                <path d="M30.1584906,7.38676864 C28.6188679,5.11145447 27.2603774,3.01816543 25.9924528,1.10690152 C25.8113208,0.833863821 25.5396226,0.56082612 25.2679245,0.378800986 C24.1811321,-0.34929955 22.7320755,0.014750718 22.0075472,1.10690152 C20.8301887,3.01816543 19.4716981,5.0204419 17.8415094,7.38676864 C10.6867925,17.9442264 3.55271368e-15,33.8714256 3.55271368e-15,42.9726823 C3.55271368e-15,49.6165997 2.71698113,55.6234291 7.06415094,59.9920323 C11.4113208,64.269623 17.3886792,67 24,67 C30.6113208,67 36.5886792,64.269623 40.9358491,59.9010198 C45.2830189,55.5324166 48,49.5255871 48,42.8816698 C48,33.7804131 37.3132075,17.9442264 30.1584906,7.38676864 Z" id="Shape" stroke="#1F8EFA" stroke-width="2" stroke-linecap="round"></path>
                <path d="M37.766114,41.005664 C36.4664345,40.9159965 35.3524235,41.902339 35.2595893,43.1576839 C35.166755,45.1303689 34.5169153,47.0133863 33.4957386,48.6274013 C32.4745618,50.2414163 30.9892139,51.6760962 29.2253631,52.5727712 C28.1113522,53.2004437 27.6471809,54.6351236 28.2970206,55.7111336 C29.0396946,56.9664786 30.5250426,57.3251486 31.6390536,56.6974761 C34.1455783,55.3524636 36.1879318,53.3797787 37.5804455,51.1380912 C39.0657935,48.8964038 39.9013017,46.2063789 39.994136,43.4266864 C40.0869702,42.1713415 39.0657935,41.0953315 37.766114,41.005664 Z" id="Shape" fill="#1F8EFA"></path>
            </g>
        </g>
    </g>
</svg>