<?xml version="1.0" encoding="UTF-8"?>
<svg viewBox="0 0 72 72" version="1.1" xmlns="http://www.w3.org/2000/svg" xmlns:xlink="http://www.w3.org/1999/xlink">
    <!-- Generator: Sketch 53.2 (72643) - https://sketchapp.com -->
    <title>Group</title>
    <desc>Created with Sketch.</desc>
    <g id="Symbols" stroke="none" stroke-width="1" fill="none" fill-rule="evenodd">
        <g id="Atoms-/-icons-/illustrated/-Mone_ON" transform="translate(-14.000000, -14.000000)" fill="#1F8EFA">
            <g id="Group" transform="translate(14.000000, 14.000000)">
                <path d="M36,72 C16.117749,72 0,55.882251 0,36 C0,16.117749 16.117749,0 36,0 C55.882251,0 72,16.117749 72,36 C72,55.882251 55.882251,72 36,72 Z M36,70 C54.7776815,70 70,54.7776815 70,36 C70,17.2223185 54.7776815,2 36,2 C17.2223185,2 2,17.2223185 2,36 C2,54.7776815 17.2223185,70 36,70 Z" id="Oval" fill-rule="nonzero"></path>
                <path d="M37.140625,17.6816406 L37.140625,19.8964844 C38.6035229,20.0468758 39.8579049,20.347654 40.9038086,20.7988281 C41.9497123,21.2500023 42.8623008,21.9335892 43.6416016,22.8496094 C44.256839,23.5468785 44.7319319,24.2646447 45.0668945,25.0029297 C45.4018571,25.7412146 45.5693359,26.4179657 45.5693359,27.0332031 C45.5693359,27.7168003 45.3198267,28.308103 44.8208008,28.8071289 C44.3217748,29.3061548 43.7168004,29.5556641 43.0058594,29.5556641 C41.6660089,29.5556641 40.7978535,28.8310619 40.4013672,27.3818359 C39.9501931,25.672843 38.8632899,24.5380887 37.140625,23.9775391 L37.140625,32.5087891 C38.835946,32.9736351 40.1860301,33.397459 41.190918,33.7802734 C42.1958058,34.1630879 43.0947226,34.7167933 43.8876953,35.4414062 C44.7353558,36.1933631 45.3881813,37.0922799 45.8461914,38.1381836 C46.3042015,39.1840873 46.5332031,40.3290953 46.5332031,41.5732422 C46.5332031,43.1318437 46.1674841,44.5913018 45.4360352,45.9516602 C44.7045862,47.3120185 43.6279368,48.4228473 42.2060547,49.2841797 C40.7841726,50.1455121 39.0957129,50.6582023 37.140625,50.8222656 L37.140625,53.9287109 C37.140625,54.7353556 37.0620125,55.3232403 36.9047852,55.6923828 C36.7475578,56.0615253 36.4023464,56.2460938 35.8691406,56.2460938 C35.3769507,56.2460938 35.0317393,56.0957046 34.8334961,55.7949219 C34.6352529,55.4941391 34.5361328,55.0293 34.5361328,54.4003906 L34.5361328,50.8632813 C32.9365154,50.685546 31.5385802,50.3095732 30.3422852,49.7353516 C29.1459901,49.1611299 28.1479532,48.4467816 27.3481445,47.5922852 C26.5483358,46.7377887 25.9570332,45.8491257 25.5742188,44.9262695 C25.1914043,44.0034134 25,43.0976607 25,42.2089844 C25,41.5527311 25.2563451,40.9614284 25.769043,40.4350586 C26.2817408,39.9086888 26.9208946,39.6455078 27.6865234,39.6455078 C28.3017609,39.6455078 28.8212869,39.7890611 29.2451172,40.0761719 C29.6689474,40.3632827 29.9628898,40.766599 30.1269531,41.2861328 C30.4960956,42.4072322 30.8173814,43.2651337 31.0908203,43.8598633 C31.3642592,44.4545928 31.7778293,44.9980444 32.331543,45.4902344 C32.8852567,45.9824243 33.6201126,46.3583971 34.5361328,46.6181641 L34.5361328,37.0820312 C32.7040924,36.5761693 31.1728577,36.0122101 29.9423828,35.3901367 C28.7119079,34.7680633 27.713871,33.8828182 26.9482422,32.734375 C26.1826134,31.5859318 25.7998047,30.109384 25.7998047,28.3046875 C25.7998047,25.9531132 26.5483324,24.0253981 28.0454102,22.5214844 C29.542488,21.0175706 31.7060405,20.1425794 34.5361328,19.8964844 L34.5361328,17.7226562 C34.5361328,16.574213 34.9667926,16 35.828125,16 C36.7031294,16 37.140625,16.5605413 37.140625,17.6816406 Z M34.5361328,31.75 L34.5361328,23.8955078 C33.3876896,24.2373064 32.4921907,24.6884738 31.8496094,25.2490234 C31.207028,25.8095731 30.8857422,26.6572209 30.8857422,27.7919922 C30.8857422,28.8720757 31.1865204,29.6889621 31.7880859,30.2426758 C32.3896514,30.7963895 33.3056579,31.2988259 34.5361328,31.75 Z M37.140625,37.8408203 L37.140625,46.8232422 C38.5214913,46.5498033 39.5878869,45.9960979 40.3398438,45.1621094 C41.0918006,44.3281208 41.4677734,43.3574274 41.4677734,42.25 C41.4677734,41.0605409 41.1020544,40.1411165 40.3706055,39.4916992 C39.6391565,38.8422819 38.5625071,38.2919944 37.140625,37.8408203 Z" id="Combined-Shape"></path>
            </g>
        </g>
    </g>
</svg>