<?xml version="1.0" encoding="UTF-8"?>
<svg viewBox="0 0 59 73" version="1.1" xmlns="http://www.w3.org/2000/svg" xmlns:xlink="http://www.w3.org/1999/xlink">
    <!-- Generator: Sketch 53.2 (72643) - https://sketchapp.com -->
    <title>Group</title>
    <desc>Created with Sketch.</desc>
    <g id="Symbols" stroke="none" stroke-width="1" fill="none" fill-rule="evenodd">
        <g id="Atoms-/-icons-/illustrated/-Outlet_ON" transform="translate(-21.000000, -14.000000)">
            <g id="Group" transform="translate(21.413702, 14.000000)">
                <path d="M38.3519901,65.1036891 L38.3519901,71.4861397 C38.3519901,72.1055336 37.8537679,72.6082301 37.2398869,72.6082301 L20.5494425,72.6082301 C19.9355615,72.6082301 19.4373393,72.1055336 19.4373393,71.4861397 L19.4373393,65.1036891 L15.6228254,65.1036891 C7.00847421,65.1036891 1.42108547e-14,58.0345191 1.42108547e-14,49.3428063 L1.42108547e-14,30.2111638 C1.42108547e-14,27.6034256 2.101875,25.4826746 4.68640278,25.4826746 L5.65615675,25.4826746 L5.65615675,5.61045235 C5.65615675,2.51572683 8.14949206,-8.52651283e-14 11.2166726,-8.52651283e-14 L11.5814425,-8.52651283e-14 C14.648623,-8.52651283e-14 17.1419583,2.51572683 17.1419583,5.61045235 L17.1419583,25.4826746 L40.6451468,25.4826746 L40.6451468,5.61045235 C40.6451468,2.51572683 43.1384821,-8.52651283e-14 46.2056627,-8.52651283e-14 L46.5704325,-8.52651283e-14 C49.6376131,-8.52651283e-14 52.1309484,2.51572683 52.1309484,5.61045235 L52.1309484,25.4826746 L53.1051508,25.4826746 C55.6874544,25.4826746 57.7893294,27.6034256 57.7893294,30.2111638 L57.7893294,49.3428063 C57.7893294,58.0322749 50.7830794,65.1036891 42.1687282,65.1036891 L38.3519901,65.1036891 Z M49.9067421,25.4826746 L49.9067421,5.61045235 C49.9067421,3.75451471 48.4098512,2.24418094 46.5704325,2.24418094 L46.2056627,2.24418094 C44.366244,2.24418094 42.8693532,3.75451471 42.8693532,5.61045235 L42.8693532,25.4826746 L49.9067421,25.4826746 Z M7.8803631,25.4826746 L14.9199762,25.4826746 L14.9199762,5.61045235 C14.9199762,3.75451471 13.4230853,2.24418094 11.5836667,2.24418094 L11.2166726,2.24418094 C9.37725397,2.24418094 7.8803631,3.75451471 7.8803631,5.61045235 L7.8803631,25.4826746 Z M4.68640278,27.7246113 C3.3296369,27.7246113 2.22420635,28.8399693 2.22420635,30.2089196 L2.22420635,49.3405621 C2.22420635,56.793487 8.2340119,62.8572639 15.6228254,62.8572639 L42.1687282,62.8572639 C49.5553175,62.8572639 55.565123,56.793487 55.565123,49.3405621 L55.565123,30.2089196 C55.565123,28.8399693 54.4619167,27.7246113 53.1051508,27.7246113 L4.68640278,27.7246113 Z M21.6615456,70.3640492 L36.1277837,70.3640492 L36.1277837,65.1036891 L21.6615456,65.1036891 L21.6615456,70.3640492 Z" id="Combined-Shape" fill="#FFFFFF" fill-rule="nonzero"></path>
                <path d="M25.5632067,53.8172716 C25.3575703,53.8172716 25.151934,53.7682469 24.9675703,53.6657407 C24.4735703,53.3938765 24.2561158,52.8300926 24.4522976,52.3220185 L26.8892067,46.0045185 L24.4830249,45.3560556 C24.0977522,45.2535494 23.7928431,44.9727716 23.6746613,44.6117716 C23.5588431,44.2507716 23.6415703,43.8563457 23.9015703,43.5666543 L30.7017522,35.95 C31.0610249,35.5466605 31.6732067,35.4419259 32.1624794,35.684821 C32.6541158,35.9321728 32.8975703,36.4714444 32.7415703,36.9772901 L31.0350249,42.5571914 L33.5215703,43.2279383 C33.9092067,43.3304444 34.2141158,43.6134506 34.329934,43.976679 C34.4481158,44.3421358 34.3582976,44.7365617 34.095934,45.0240247 L26.4590249,53.4273025 C26.2297522,53.6813395 25.8964794,53.8172716 25.5632067,53.8172716 Z" id="Shape" fill="#1F8EFA"></path>
            </g>
        </g>
    </g>
</svg>