<svg viewBox="0 0 57 68" version="1.1" xmlns="http://www.w3.org/2000/svg" xmlns:xlink="http://www.w3.org/1999/xlink">
    <g id="Symbols" stroke="none" stroke-width="1" fill="none" fill-rule="evenodd">
        <g id="Atoms-/-icons-/illustrated/-Camera_ON" transform="translate(-22.000000, -16.000000)">
            <g id="002-webcam-1" transform="translate(22.000000, 16.000000)">
                <path d="M56.0570581,27.9789331 C56.0570581,12.5513155 43.5058738,0 28.078125,0 C12.6503762,0 0.0991918808,12.5513155 0.0991918808,27.9789331 C0.0991918808,41.9035838 10.324484,53.4834487 23.6604125,55.6079393 L23.6604125,58.5316069 L14.1883751,60.4260931 C13.175857,60.628413 12.4407087,61.5249449 12.4407087,62.5576689 L12.4407087,65.0037459 C12.4407087,66.2024457 13.4158331,67.1775701 14.6145329,67.1775701 L41.5417171,67.1775701 C42.7404169,67.1775701 43.7155413,66.2024457 43.7155413,65.0037459 L43.7155413,62.5575377 C43.7155413,61.5249449 42.9805242,60.628413 41.9681373,60.4259619 L32.4959687,58.5314757 L32.4959687,55.6078081 C45.831766,53.4834487 56.0570581,41.903715 56.0570581,27.9789331 Z M41.555625,62.4889168 C41.5881641,62.4954771 41.6119125,62.5243425 41.6119125,62.5576689 L41.6119125,65.0038771 C41.6119125,65.0425829 41.5805542,65.0739412 41.5418483,65.0739412 L14.6145329,65.0739412 C14.575827,65.0739412 14.5444688,65.0425829 14.5444688,65.0038771 L14.5444688,62.5576689 C14.5444688,62.5244737 14.5682171,62.4954771 14.6008874,62.4889168 L24.8164703,60.445774 L31.3400421,60.445774 L41.555625,62.4889168 Z M25.7640414,58.3421452 L25.7640414,55.8615609 C26.527399,55.9244087 27.2988914,55.9578662 28.078125,55.9578662 C28.8573586,55.9578662 29.628851,55.9241462 30.3922086,55.8615609 L30.3922086,58.3421452 L25.7640414,58.3421452 Z M28.078125,53.8542374 C13.8103701,53.8542374 2.20282075,42.246688 2.20282075,27.9789331 C2.20282075,13.7111782 13.8103701,2.10362887 28.078125,2.10362887 C42.3458799,2.10362887 53.9534292,13.7111782 53.9534292,27.9789331 C53.9534292,42.246688 42.3458799,53.8542374 28.078125,53.8542374 Z" id="Shape" fill="#FFFFFF" fill-rule="nonzero"></path>
                <path d="M28.078125,15.7074804 C21.3115593,15.7074804 15.8066723,21.2123674 15.8066723,27.9789331 C15.8066723,34.7454988 21.3115593,40.2503858 28.078125,40.2503858 C34.8446907,40.2503858 40.3495777,34.7454988 40.3495777,27.9789331 C40.3495777,21.2123674 34.8446907,15.7074804 28.078125,15.7074804 Z M28.078125,38.1467569 C22.4715532,38.1467569 17.9103012,33.5855049 17.9103012,27.9789331 C17.9103012,22.3723613 22.4715532,17.8111093 28.078125,17.8111093 C33.6846968,17.8111093 38.2459488,22.3723613 38.2459488,27.9789331 C38.2459488,33.5855049 33.6846968,38.1467569 28.078125,38.1467569 Z" id="Shape" fill="#1F8EFA"></path>
                <path d="M28.078125,5.60985193 C26.260788,5.60985193 24.7823567,7.08828329 24.7823567,8.90562025 C24.7823567,10.7229572 26.260788,12.2013886 28.078125,12.2013886 C29.895462,12.2013886 31.3738933,10.7229572 31.3738933,8.90562025 C31.3738933,7.08828329 29.895462,5.60985193 28.078125,5.60985193 Z M28.078125,10.0976285 C27.420782,10.0976285 26.8859855,9.56283207 26.8859855,8.90548905 C26.8859855,8.24814603 27.420782,7.71334959 28.078125,7.71334959 C28.735468,7.71334959 29.2702645,8.24814603 29.2702645,8.90548905 C29.2702645,9.56296327 28.735468,10.0976285 28.078125,10.0976285 Z" id="Shape" fill="#FFFFFF" fill-rule="nonzero"></path>
                <path d="M31.05188,21 C30.4710302,21 30,21.470899 30,22.05188 C30,22.6328611 30.470899,23.1037601 31.05188,23.1037601 C31.7092231,23.1037601 32.2440195,23.6385565 32.2440195,24.2958995 C32.2440195,24.8767493 32.7149185,25.3477796 33.2958995,25.3477796 C33.8768805,25.3477796 34.3477796,24.8768805 34.3477796,24.2958995 C34.3476484,22.4785626 32.869217,21 31.05188,21 Z" id="Shape" fill="#1F8EFA"></path>
            </g>
        </g>
    </g>
</svg>