<?xml version="1.0" encoding="UTF-8"?>
<svg viewBox="0 0 68 55" version="1.1" xmlns="http://www.w3.org/2000/svg" xmlns:xlink="http://www.w3.org/1999/xlink">
    <!-- Generator: Sketch 53.2 (72643) - https://sketchapp.com -->
    <title>speaker</title>
    <desc>Created with Sketch.</desc>
    <g id="Symbols" stroke="none" stroke-width="1" fill="none" fill-rule="evenodd">
        <g id="Atoms-/-icons-/illustrated/-Speaker_ON" transform="translate(-21.000000, -21.000000)">
            <g id="speaker" transform="translate(21.000000, 21.000000)">
                <path d="M32.1912,1.9924 C31.0862,1.3668 29.7760667,1.3872 28.6892,2.04226667 C28.6370667,2.07286667 28.5872,2.10913333 28.5418667,2.14766667 L13.1852,15.1390667 L1.13333333,15.1390667 C0.5066,15.1390667 0,15.6456667 0,16.2724 L0,37.8057333 C0,38.1072 0.119,38.3950667 0.332066667,38.607 C0.545133333,38.8189333 0.831866667,38.9390667 1.13333333,38.9390667 L13.158,38.9334 L28.5067333,53.0320667 C28.5634,53.0842 28.6246,53.1295333 28.6892,53.1680667 C29.2468,53.5046667 29.8644667,53.6735333 30.4821333,53.6735333 C31.0680667,53.6724 31.6528667,53.5216667 32.1912,53.2179333 C33.3234,52.5787333 34,51.4114 34,50.0944667 L34,5.11586667 C34,3.80006667 33.3234,2.63273333 32.1912,1.9924 Z M31.7333333,50.0944667 C31.7333333,50.5829333 31.4874,51.0124667 31.0771333,51.2448 C30.9014667,51.3434 30.4560667,51.5338 29.9438,51.2742667 L14.7333333,37.3014 L14.7333333,32.1379333 C14.7333333,31.5112 14.2267333,31.0046 13.6,31.0046 C12.9732667,31.0046 12.4666667,31.5112 12.4666667,32.1379333 L12.4666667,36.6667333 L2.26666667,36.6712667 L2.26666667,17.4046 L12.4666667,17.4046 L12.4666667,21.9379333 C12.4666667,22.5646667 12.9732667,23.0712667 13.6,23.0712667 C14.2267333,23.0712667 14.7333333,22.5646667 14.7333333,21.9379333 L14.7333333,16.7971333 L29.9256667,3.94513333 C30.4481333,3.67086667 30.9014667,3.8658 31.0771333,3.96553333 C31.4874,4.19786667 31.7333333,4.6274 31.7333333,5.11586667 L31.7333333,50.0944667 Z" id="Shape" fill="#FFFFFF" fill-rule="nonzero"></path>
                <path d="M58.9628,27.0390667 C58.9628,17.5791333 52.938,9.17773333 43.9699333,6.13246667 C43.3783333,5.93186667 42.7334667,6.2492 42.5317333,6.84193333 C42.3311333,7.43353333 42.6484667,8.0784 43.2412,8.28013333 C51.289,11.0126 56.6961333,18.5515333 56.6961333,27.0402 C56.6961333,35.5209333 51.2992,43.061 43.2672667,45.8014 C42.6756667,46.0031333 42.3583333,46.6468667 42.5612,47.2407333 C42.7221333,47.7110667 43.1618667,48.008 43.6333333,48.008 C43.7546,48.008 43.8781333,47.9887333 43.9994,47.9468 C52.9504667,44.8924667 58.9628,36.4910667 58.9628,27.0390667 Z" id="Shape" fill="#1F8EFA"></path>
                <path d="M50.3800667,0.423866667 C49.8043333,0.182466667 49.1390667,0.447666667 48.8931333,1.02453333 C48.6494667,1.6014 48.9180667,2.26666667 49.4949333,2.51146667 C59.3594667,6.69686667 65.7333333,16.3256667 65.7333333,27.0390667 C65.7333333,38.1196667 59.0534667,47.8697333 48.7163333,51.8749333 C48.1326667,52.1016 47.8425333,52.7578 48.0692,53.3414667 C48.2426,53.7902667 48.6721333,54.0656667 49.1266,54.0656667 C49.2626,54.0656667 49.4008667,54.0418667 49.5357333,53.9897333 C60.7523333,49.6411333 68,39.0626 68,27.0390667 C68,15.4133333 61.0832667,4.96626667 50.3800667,0.423866667 Z" id="Shape" fill="#FFFFFF" fill-rule="nonzero"></path>
                <path d="M48.7628,27.0390667 C48.7628,20.2708 44.2192667,14.2301333 37.7139333,12.3488 C37.1132667,12.1776667 36.4854,12.5210667 36.3108667,13.124 C36.1374667,13.7246667 36.4831333,14.3536667 37.0860667,14.5270667 C42.6269333,16.1284667 46.4972667,21.2738 46.4972667,27.0390667 C46.4972667,32.8043333 42.6269333,37.9496667 37.0860667,39.5510667 C36.4842667,39.7244667 36.1374667,40.3534667 36.3108667,40.9541333 C36.4548,41.4505333 36.907,41.7735333 37.4,41.7735333 C37.5042667,41.7735333 37.6096667,41.7588 37.7139333,41.7293333 C44.2204,39.8468667 48.7628,33.8062 48.7628,27.0390667 Z" id="Shape" fill="#FFFFFF" fill-rule="nonzero"></path>
            </g>
        </g>
    </g>
</svg>