<?xml version="1.0" encoding="UTF-8"?>
<svg viewBox="0 0 49 60" version="1.1" xmlns="http://www.w3.org/2000/svg" xmlns:xlink="http://www.w3.org/1999/xlink">
    <!-- Generator: Sketch 53.2 (72643) - https://sketchapp.com -->
    <title>001-locked</title>
    <desc>Created with Sketch.</desc>
    <g id="Symbols" stroke="none" stroke-width="1" fill="none" fill-rule="evenodd">
        <g id="Atoms-/-icons-/illustrated/-Security_ON" transform="translate(-26.000000, -20.000000)" fill="#1F8EFA">
            <g id="001-locked" transform="translate(26.000000, 20.000000)">
                <path d="M42.2222222,22.3477778 L42.2222222,16.1111111 C42.2222222,7.22777778 34.2466667,0 24.4444444,0 C14.6422222,0 6.66666667,7.22777778 6.66666667,16.1111111 L6.66666667,22.3477778 C2.88777778,22.9988889 0,26.2922222 0,30.2555556 L0,51.9688889 C0,56.3966667 3.60333333,60 8.03222222,60 L40.8566667,60 C45.2855556,60 48.8888889,56.3966667 48.8888889,51.9677778 L48.8888889,30.2544444 C48.8888889,26.2922222 46.0011111,22.9988889 42.2222222,22.3477778 Z M8.88888889,16.1111111 C8.88888889,8.45222222 15.8666667,2.22222222 24.4444444,2.22222222 C33.0222222,2.22222222 40,8.45222222 40,16.1111111 L40,22.2222222 L8.88888889,22.2222222 L8.88888889,16.1111111 Z M46.6666667,51.9677778 C46.6666667,55.1711111 44.06,57.7777778 40.8566667,57.7777778 L8.03222222,57.7777778 C4.82888889,57.7777778 2.22222222,55.1711111 2.22222222,51.9677778 L2.22222222,30.2544444 C2.22222222,27.0511111 4.82888889,24.4444444 8.03222222,24.4444444 L40.8566667,24.4444444 C44.06,24.4444444 46.6666667,27.0511111 46.6666667,30.2544444 L46.6666667,51.9677778 Z" id="Shape"></path>
                <path d="M24.4444444,31.1111111 C26.8955556,31.1111111 28.8888889,33.1044444 28.8888889,35.5555556 L28.8888889,42.2222222 C28.8888889,44.6733333 26.8955556,46.6666667 24.4444444,46.6666667 C21.9933333,46.6666667 20,44.6733333 20,42.2222222 L20,35.5555556 C20,33.1044444 21.9933333,31.1111111 24.4444444,31.1111111 Z" id="Shape"></path>
            </g>
        </g>
    </g>
</svg>