<?xml version="1.0" encoding="UTF-8"?>
<svg viewBox="0 0 47 68" version="1.1" xmlns="http://www.w3.org/2000/svg" xmlns:xlink="http://www.w3.org/1999/xlink">
    <!-- Generator: Sketch 53.2 (72643) - https://sketchapp.com -->
    <title>Group</title>
    <desc>Created with Sketch.</desc>
    <g id="Symbols" stroke="none" stroke-width="1" fill="none" fill-rule="evenodd">
        <g id="Atoms-/-icons-/illustrated/-Temperature_ON" transform="translate(-26.000000, -16.000000)">
            <g id="Group" transform="translate(26.000000, 16.000000)">
                <path d="M33.3748439,43.3639121 L33.3748439,7.93359779 C33.3748439,3.55991866 29.8422458,0 25.4996253,0 C21.1570048,0 17.6244067,3.55991866 17.6244067,7.93359779 L17.6244067,43.3639121 C13.636171,46.249475 11.5256124,51.0357012 12.0903781,56.0021334 C12.7968977,62.2152738 17.7897863,67.2259075 23.9605826,67.9161305 C24.4634715,67.9727991 24.9663605,68 25.4669994,68 C28.7914667,68 32.0180562,66.7770926 34.5010001,64.5375513 C37.3597045,61.959132 39,58.2643421 39,54.4018134 C39,50.0020667 36.908567,45.9219307 33.3748439,43.3639121 Z M33.0013335,62.8488283 C30.5870165,65.0271676 27.4661799,66.0256675 24.2103395,65.6618554 C19.0723219,65.0883696 14.9153315,60.9164305 14.3269402,55.7425914 C13.8353016,51.4255809 15.7658551,47.2751758 19.36483,44.908697 L19.8755942,44.5720857 L19.8755942,43.0681023 L21.0006254,43.0681023 C21.6216427,43.0681023 22.1256567,42.5614854 22.1256567,41.9347312 C22.1256567,41.3079769 21.6216427,40.80136 21.0006254,40.80136 L19.8755942,40.80136 L19.8755942,37.4012467 L21.0006254,37.4012467 C21.6216427,37.4012467 22.1256567,36.8946298 22.1256567,36.2678756 C22.1256567,35.6411214 21.6216427,35.1345045 21.0006254,35.1345045 L19.8755942,35.1345045 L19.8755942,31.7343911 L21.0006254,31.7343911 C21.6216427,31.7343911 22.1256567,31.2277743 22.1256567,30.60102 C22.1256567,29.9742658 21.6216427,29.4676489 21.0006254,29.4676489 L19.8755942,29.4676489 L19.8755942,26.0675356 L21.0006254,26.0675356 C21.6216427,26.0675356 22.1256567,25.5609187 22.1256567,24.9341645 C22.1256567,24.3074102 21.6216427,23.8007934 21.0006254,23.8007934 L19.8755942,23.8007934 L19.8755942,20.40068 L21.0006254,20.40068 C21.6216427,20.40068 22.1256567,19.8940631 22.1256567,19.2673089 C22.1256567,18.6405547 21.6216427,18.1339378 21.0006254,18.1339378 L19.8755942,18.1339378 L19.8755942,14.7338245 L21.0006254,14.7338245 C21.6216427,14.7338245 22.1256567,14.2272076 22.1256567,13.6004533 C22.1256567,12.9736991 21.6216427,12.4670822 21.0006254,12.4670822 L19.8755942,12.4670822 L19.8755942,9.0669689 L21.0006254,9.0669689 C21.6216427,9.0669689 22.1256567,8.56035201 22.1256567,7.93359779 C22.1256567,7.30684356 21.6216427,6.80022667 21.0006254,6.80022667 L19.9880973,6.80022667 C20.5112368,4.21727391 22.7826749,2.26674222 25.4996253,2.26674222 C28.6013364,2.26674222 31.1247814,4.80889363 31.1247814,7.93359779 L31.1247814,9.0669689 L29.9997502,9.0669689 C29.378733,9.0669689 28.874719,9.57358579 28.874719,10.20034 C28.874719,10.8270942 29.378733,11.3337111 29.9997502,11.3337111 L31.1247814,11.3337111 L31.1247814,14.7338245 L29.9997502,14.7338245 C29.378733,14.7338245 28.874719,15.2404413 28.874719,15.8671956 C28.874719,16.4939498 29.378733,17.0005667 29.9997502,17.0005667 L31.1247814,17.0005667 L31.1247814,20.40068 L29.9997502,20.40068 C29.378733,20.40068 28.874719,20.9072969 28.874719,21.5340511 C28.874719,22.1608054 29.378733,22.6674222 29.9997502,22.6674222 L31.1247814,22.6674222 L31.1247814,26.0675356 L29.9997502,26.0675356 C29.378733,26.0675356 28.874719,26.5741525 28.874719,27.2009067 C28.874719,27.8276609 29.378733,28.3342778 29.9997502,28.3342778 L31.1247814,28.3342778 L31.1247814,31.7343911 L29.9997502,31.7343911 C29.378733,31.7343911 28.874719,32.241008 28.874719,32.8677623 C28.874719,33.4945165 29.378733,34.0011334 29.9997502,34.0011334 L31.1247814,34.0011334 L31.1247814,37.4012467 L29.9997502,37.4012467 C29.378733,37.4012467 28.874719,37.9078636 28.874719,38.5346178 C28.874719,39.161372 29.378733,39.6679889 29.9997502,39.6679889 L31.1247814,39.6679889 L31.1247814,44.5743525 L31.6355456,44.9098303 C34.8385095,47.0145005 36.7499375,50.5630854 36.7499375,54.4018134 C36.7499375,57.6217207 35.3830246,60.6999567 33.0013335,62.8488283 Z M5.5,32 L9.3896,36.1020882 C10.428,37.1972158 11,38.6531323 11,40.2030162 C11,41.7529002 10.428,43.2088167 9.3896,44.3039443 C8.3171,45.4350348 6.9091,46 5.5,46 C4.0909,46 2.6829,45.4350348 1.6104,44.3039443 C0.572,43.2088167 0,41.7529002 0,40.2030162 C0,38.6531323 0.572,37.1972158 1.6104,36.1020882 L5.5,32 Z M7.8342,42.6635731 C8.4568,42.0069606 8.8,41.1334107 8.8,40.2030162 C8.8,39.2726218 8.4568,38.3990719 7.8342,37.7424594 L5.5,35.2807425 L3.1658,37.7424594 C2.5432,38.3990719 2.2,39.2726218 2.2,40.2030162 C2.2,41.1334107 2.5432,42.0069606 3.1669,42.6635731 C4.4539,44.0208817 6.5472,44.0197216 7.8342,42.6635731 Z M41.5,14 C38.4624339,14 36,11.5375661 36,8.5 C36,5.46243388 38.4624339,3 41.5,3 C44.5375661,3 47,5.46243388 47,8.5 C47,11.5375661 44.5375661,14 41.5,14 Z M41.5,12 C43.4329966,12 45,10.4329966 45,8.5 C45,6.56700338 43.4329966,5 41.5,5 C39.5670034,5 38,6.56700338 38,8.5 C38,10.4329966 39.5670034,12 41.5,12 Z M36,15 L47,15 L47,17 L36,17 L36,15 Z" id="Combined-Shape" fill="#FFFFFF" fill-rule="nonzero"></path>
                <path d="M26.6,48.863625 L26.6,7.125 C26.6,6.502875 26.1072,6 25.5,6 C24.8928,6 24.4,6.502875 24.4,7.125 L24.4,48.863625 C21.8898,49.3845 20,51.653625 20,54.375 C20,57.481125 22.4629,60 25.5,60 C28.5371,60 31,57.481125 31,54.375 C31,51.653625 29.1102,49.3845 26.6,48.863625 Z" id="Shape" fill="#1F8EFA"></path>
            </g>
        </g>
    </g>
</svg>