<?xml version="1.0" encoding="UTF-8"?>
<svg viewBox="0 0 66 60" version="1.1" xmlns="http://www.w3.org/2000/svg" xmlns:xlink="http://www.w3.org/1999/xlink">
    <!-- Generator: Sketch 53.2 (72643) - https://sketchapp.com -->
    <title>007-light</title>
    <desc>Created with Sketch.</desc>
    <g id="Symbols" stroke="none" stroke-width="1" fill="none" fill-rule="evenodd">
        <g id="Atoms-/-icons-/illustrated/-Light_ON" transform="translate(-16.000000, -20.000000)">
            <g id="007-light" transform="translate(16.000000, 20.000000)">
                <path d="M35,8.22063603 C35,7.54687617 34.4544753,7 33.779364,7 C26.7330402,7 21,12.7330402 21,19.779364 C21,20.4531238 21.5455247,21 22.220636,21 C22.8955971,21 23.4412721,20.4531238 23.4412721,19.779364 C23.4412721,14.0793586 28.0795088,9.4411219 33.7795141,9.4411219 C34.4544753,9.4411219 35,8.89559715 35,8.22063603 Z" id="Shape" fill="#FFFFFF" fill-rule="nonzero"></path>
                <path d="M15,19.9056902 C15,10.0334787 23.0752754,2 33.0005057,2 C42.925736,2 51,10.0321851 51,19.9056902 C51,23.8895873 49.7128048,27.6597586 47.2794293,30.8095928 C42.0930829,37.9351316 43.4389381,41.3793241 43.4530973,41.4132443 C43.6985732,41.9973614 43.435615,42.6842451 42.8553729,42.9425272 C42.2751309,43.2008093 41.5975077,42.967105 41.321546,42.3957798 C41.1030883,41.940157 39.3555716,37.7107697 45.3968214,29.4122536 C47.5331407,26.6480459 48.6511468,23.3685675 48.6511468,19.9045404 C48.6511468,11.3197149 41.6288604,4.33560605 33.0003612,4.33560605 C24.371862,4.33560605 17.3498645,11.3197149 17.3498645,19.9045404 C17.3498645,23.3593688 18.4609355,26.6259115 20.5643128,29.3597923 C20.5947986,29.3924189 20.6218169,29.4274889 20.6488351,29.4637088 C26.6866173,37.756332 25.0071519,41.9378573 24.794618,42.3864374 C24.5950876,42.8105835 24.1721871,43.0593794 23.7306484,43.0593794 C23.5639155,43.0605292 23.3948709,43.0243094 23.2339173,42.94957 C22.6467401,42.6750465 22.3930287,41.9798264 22.6678346,41.3957093 C22.6678346,41.3899601 23.9456384,38.0134642 18.805093,30.9148029 C18.7922341,30.8995675 18.7792306,30.8844759 18.7675275,30.8692406 C16.3025104,27.7064707 15,23.9153149 15,19.9056902 Z M44.0322581,47.1777692 C44.0322581,48.8651935 42.7275602,50.2376238 41.1244002,50.2376238 L25.1672333,50.2376238 C23.562908,50.2376238 22.2580645,48.8639678 22.2580645,47.1777692 L22.2580645,46.1192605 C22.2580645,44.4318362 23.562908,43.0594059 25.1672333,43.0594059 L41.1230892,43.0594059 C42.7262493,43.0594059 44.0322581,44.4318362 44.0322581,46.1192605 L44.0322581,47.1777692 Z M24.6260976,47.1777692 C24.6260976,47.4916908 24.8687712,47.746934 25.1672333,47.746934 L41.1244002,47.746934 C41.4228624,47.746934 41.6655359,47.4915376 41.6655359,47.1777692 L41.6655359,46.1192605 C41.6655359,45.8053389 41.4227167,45.5500957 41.1244002,45.5500957 L25.1672333,45.5500957 C24.8687712,45.5500957 24.6260976,45.8054921 24.6260976,46.1192605 L24.6260976,47.1777692 Z M26.9447715,51.960396 C27.6098899,51.960396 28.1474595,52.4664757 28.1474595,53.0940256 L28.1474595,55.3564092 L33.4179496,57.6210217 L38.7233603,55.2634956 L38.7233603,53.0940256 C38.7233603,52.4689831 39.2609299,51.9616497 39.9261963,51.9616497 C40.5914627,51.9616497 41.1290323,52.4689831 41.1290323,53.0940256 L41.1290323,55.9803373 C41.1290323,56.4185775 40.8607654,56.817117 40.439795,57.0039193 L33.9399825,59.8913454 C33.777661,59.9637818 33.6020224,60 33.4263838,60 C33.2556282,60 33.0860562,59.9660106 32.927286,59.8980318 L26.4455257,57.1136883 C26.0173049,56.9291148 25.7419355,56.5270928 25.7419355,56.0832806 L25.7419355,53.0927719 C25.7419355,52.4677294 26.279653,51.960396 26.9447715,51.960396 Z" id="Combined-Shape" fill="#FFFFFF" fill-rule="nonzero"></path>
                <path d="M59.7998946,40.5361268 C60.1359548,40.0288245 60.0386411,39.3134848 59.5837118,38.9387362 L52.6325842,33.2234683 C52.1766466,32.8487196 51.5361656,32.956112 51.2001054,33.4645387 C50.8640452,33.971841 50.9613589,34.6871807 51.4162882,35.0619293 L58.3674158,40.7771972 C58.5508245,40.9280244 58.763982,40.9999942 58.9749965,40.9999942 C59.2886191,41.0011187 59.5990904,40.8400302 59.7998946,40.5361268 Z" id="Shape" fill="#1F8EFA"></path>
                <path d="M13.2160378,7.78074766 C13.416329,7.92917527 13.6491073,8 13.8795454,8 C14.2230001,8 14.5609484,7.84147434 14.7814752,7.54240585 C15.1484693,7.04317451 15.0421979,6.33921543 14.5453932,5.97042885 L6.78318025,0.220069491 C6.2863755,-0.149823724 5.58583812,-0.0419266757 5.21884409,0.457304668 C4.85185005,0.957642647 4.95702014,1.66160172 5.45492615,2.0303883 L13.2160378,7.78074766 Z" id="Shape" fill="#1F8EFA"></path>
                <path d="M13.2765285,33.2121553 L5.43919199,39.0342481 C4.95923293,39.3914383 4.85656504,40.0732616 5.21111502,40.5567948 C5.42296727,40.8464591 5.75052038,41 6.08246215,41 C6.30508655,41 6.52997178,40.9314023 6.72347148,40.787642 L14.560808,34.9655491 C15.0407671,34.6083589 15.143435,33.9265356 14.788885,33.4430025 C14.4320742,32.9583975 13.7564876,32.8560369 13.2765285,33.2121553 Z" id="Shape" fill="#1F8EFA"></path>
                <path d="M51.4307058,5.87138302 C50.9600206,6.25816689 50.8593365,6.99648012 51.2070358,7.52007463 C51.4147946,7.83373807 51.7360186,8 52.0615465,8 C52.2798693,8 52.5004092,7.92455829 52.6901701,7.77004785 L59.5692942,2.12831337 C60.0399794,1.7415295 60.1406635,1.00321627 59.7929642,0.479621757 C59.445265,-0.0439727544 58.7826018,-0.157135325 58.3108733,0.230809181 L51.4307058,5.87138302 Z" id="Shape" fill="#1F8EFA"></path>
                <path d="M64.8599314,19 L56.1400686,19 C55.5096579,19 55,19.6720384 55,20.5 C55,21.3279616 55.5095177,22 56.1400686,22 L64.8599314,22 C65.4903421,22 66,21.3279616 66,20.5 C66,19.6720384 65.4903421,19 64.8599314,19 Z" id="Shape" fill="#1F8EFA"></path>
                <path d="M11,20.5 C11,19.6720384 10.5030467,19 9.88804467,19 L1.11195533,19 C0.497090131,19 0,19.6720384 0,20.5 C0,21.3279616 0.496953343,22 1.11195533,22 L9.88818146,22 C10.5018156,21.9998155 11,21.3279616 11,20.5 Z" id="Shape" fill="#1F8EFA"></path>
            </g>
        </g>
    </g>
</svg>